<?xml version="1.0" encoding="UTF-8"?>
<svg version="1.1" xmlns="http://www.w3.org/2000/svg" width="152" height="102">
<path d="M0 0 C5.56731791 2.10460806 9.45009488 5.59420115 12 11 C13.02329648 16.05151117 13.50068493 20.99771689 12 26 C12.61488281 26.03738281 13.22976562 26.07476563 13.86328125 26.11328125 C14.67152344 26.17902344 15.47976562 26.24476562 16.3125 26.3125 C17.11300781 26.37050781 17.91351563 26.42851562 18.73828125 26.48828125 C21.5018521 27.11354512 22.29571877 27.75302145 24 30 C25.40063367 40.10019093 23.42990136 51.18031974 22.5 61.3125 C22.35494619 62.93940662 22.21041165 64.56635962 22.06640625 66.19335938 C21.71690554 70.12946521 21.36043961 74.06488142 21 78 C20.34 78 19.68 78 19 78 C14.33333333 68.66666667 9.66666667 59.33333333 5 50 C0.545 50.495 0.545 50.495 -4 51 C-4.639375 49.741875 -5.27875 48.48375 -5.9375 47.1875 C-8.53972205 43.05628872 -10.95096705 41.42752361 -15.65234375 40.203125 C-20.52220449 39.78177266 -24.26216156 41.54245808 -27.9375 44.625 C-30.13427696 49.53544261 -30.54463028 54.8512324 -29 60 C-31.31 61.32 -33.62 62.64 -36 64 C-35.40347559 72.41122449 -33.64615447 80.32072169 -31.640625 88.4921875 C-31.41632812 89.43320313 -31.19203125 90.37421875 -30.9609375 91.34375 C-30.75259277 92.19130859 -30.54424805 93.03886719 -30.32958984 93.91210938 C-30 96 -30 96 -31 98 C-35.08826212 97.27538461 -39.169301 96.51597094 -43.25 95.75 C-44.40886719 95.54503906 -45.56773438 95.34007813 -46.76171875 95.12890625 C-48.43427734 94.80986328 -48.43427734 94.80986328 -50.140625 94.484375 C-51.68024902 94.20158691 -51.68024902 94.20158691 -53.25097656 93.91308594 C-56.57485525 92.80906229 -58.04259796 91.92089639 -60 89 C-59.5877386 84.37312975 -58.56232864 80.10093269 -57.20581055 75.66918945 C-56.83840256 74.46136307 -56.47099457 73.25353668 -56.092453 72.0091095 C-55.69103045 70.71034888 -55.28910697 69.411743 -54.88671875 68.11328125 C-54.47164348 66.76526486 -54.05667227 65.41721643 -53.64179993 64.06913757 C-52.77399273 61.25474084 -51.90162234 58.44180345 -51.02661133 55.62963867 C-49.90817895 52.03218777 -48.80639801 48.42986702 -47.70859051 44.82607746 C-46.8583529 42.04470244 -45.99677633 39.26693589 -45.13202858 36.49004173 C-44.72088885 35.16328014 -44.31385233 33.83523957 -43.9110775 32.50591469 C-43.34678833 30.64781563 -42.76493377 28.79507868 -42.18237305 26.94262695 C-41.85673874 25.88896439 -41.53110443 24.83530182 -41.19560242 23.74971008 C-39.88049959 20.7251666 -38.55233643 19.06975992 -36 17 C-33.203125 16.609375 -33.203125 16.609375 -30.25 16.75 C-29.26515625 16.78609375 -28.2803125 16.8221875 -27.265625 16.859375 C-26.51796875 16.90578125 -25.7703125 16.9521875 -25 17 C-24.84144531 16.40832031 -24.68289062 15.81664062 -24.51953125 15.20703125 C-22.62771836 8.79995225 -20.27676053 5.28093687 -14.69921875 1.3984375 C-9.96573146 -1.05393363 -5.19076734 -0.71364635 0 0 Z M-17.8125 11.375 C-19.33891135 14.45002434 -19.33891135 14.45002434 -20 20 C-11.09 21.65 -2.18 23.3 7 25 C8.14995338 17.61385753 8.14995338 17.61385753 6 11 C3.45241839 7.72350694 0.85864616 5.42271293 -3.25 4.48828125 C-9.64989784 4.17477274 -13.87119687 6.21053383 -17.8125 11.375 Z M-25 25 C-25 26.32 -25 27.64 -25 29 C-24.01 28.67 -23.02 28.34 -22 28 C-22 27.01 -22 26.02 -22 25 C-22.99 25 -23.98 25 -25 25 Z M6 31 C5.67 31.99 5.34 32.98 5 34 C6.32 34.33 7.64 34.66 9 35 C9.33 34.34 9.66 33.68 10 33 C9.67 32.34 9.34 31.68 9 31 C8.01 31 7.02 31 6 31 Z " fill="#EA6809" transform="translate(61,1)"/>
<path d="M0 0 C7.92 0 15.84 0 24 0 C19.66510066 8.88654365 14.97654908 17.46155539 10 26 C13.40080275 26.22937214 13.40080275 26.22937214 17 26 C19.66205207 22.91762392 21.37662827 20.05191622 22 16 C22.66 16 23.32 16 24 16 C24 19.96 24 23.92 24 28 C15.75 28 7.5 28 -1 28 C3.62434882 19.30941343 8.26334081 10.63004952 13 2 C8.59601533 1.716966 8.59601533 1.716966 4.75 3.5625 C2.58829182 6.57345068 1.82828954 9.41074531 1 13 C0.67 13 0.34 13 0 13 C0 8.71 0 4.42 0 0 Z " fill="#EB6809" transform="translate(46,69)"/>
<path d="M0 0 C4.08609258 2.97944251 5.21493625 5.13424031 6 10 C3.2328864 11.03205859 0.46208746 12.05090829 -2.3125 13.0625 C-3.09818359 13.35705078 -3.88386719 13.65160156 -4.69335938 13.95507812 C-5.45068359 14.22900391 -6.20800781 14.50292969 -6.98828125 14.78515625 C-7.68477783 15.04176025 -8.38127441 15.29836426 -9.09887695 15.56274414 C-11 16 -11 16 -14 15 C-15.470538 7.89239966 -15.470538 7.89239966 -13.1875 3.5625 C-9.47324483 -0.78848463 -5.47547772 -0.84165374 0 0 Z " fill="#EA6909" transform="translate(48,44)"/>
<path d="M0 0 C3.03978021 0.68164768 4.80055419 2.23591662 6.93359375 4.43359375 C8.50294969 7.57230563 8.28560478 9.97215197 7.93359375 13.43359375 C4.98022423 17.00872527 2.81354256 19.17723709 -1.81640625 19.80859375 C-5.29271262 19.40748148 -7.33585137 18.51997175 -9.921875 16.125 C-11.80038896 13.34890258 -11.82443464 10.87240494 -11.578125 7.59375 C-10.11856088 1.43238391 -5.77821305 -0.36045563 0 0 Z M-3.06640625 1.43359375 C-4.75883024 4.38861976 -5.33969426 6.53354397 -5.31640625 9.93359375 C-5.3215625 10.68640625 -5.32671875 11.43921875 -5.33203125 12.21484375 C-5.03891029 14.66326585 -4.28457394 16.30663429 -3.06640625 18.43359375 C-2.07640625 18.10359375 -1.08640625 17.77359375 -0.06640625 17.43359375 C1.29898313 14.70281499 1.06591201 12.47799008 1.05859375 9.43359375 C1.06246094 7.82484375 1.06246094 7.82484375 1.06640625 6.18359375 C1.12082785 3.47177323 1.12082785 3.47177323 -0.06640625 1.43359375 C-1.05640625 1.43359375 -2.04640625 1.43359375 -3.06640625 1.43359375 Z " fill="#EB6809" transform="translate(142.06640625,79.56640625)"/>
<path d="M0 0 C2.75329021 1.79562405 4.52627461 3.05254922 6 6 C6.375 9.3125 6.375 9.3125 6 13 C3.02177816 16.60521591 0.87843794 18.79128467 -3.8125 19.3125 C-7.7307645 18.92835642 -9.21293267 17.70743683 -12 15 C-13.55024464 11.89951072 -13.28992015 9.42105782 -13 6 C-9.30920537 0.34078157 -6.6962915 -0.56748233 0 0 Z M-5 1 C-6.69242399 3.95502601 -7.27328801 6.09995022 -7.25 9.5 C-7.25515625 10.2528125 -7.2603125 11.005625 -7.265625 11.78125 C-6.97250404 14.2296721 -6.21816769 15.87304054 -5 18 C-3.68 17.34 -2.36 16.68 -1 16 C-0.97306425 13.87506859 -0.95363372 11.75004088 -0.9375 9.625 C-0.92589844 8.44164063 -0.91429688 7.25828125 -0.90234375 6.0390625 C-0.78533407 3.08078479 -0.78533407 3.08078479 -2 1 C-2.99 1 -3.98 1 -5 1 Z " fill="#EA6809" transform="translate(86,80)"/>
<path d="M0 0 C1.48831242 0.00667405 2.97660807 0.01863442 4.46484375 0.03515625 C5.22345703 0.03966797 5.98207031 0.04417969 6.76367188 0.04882812 C8.64326246 0.06064945 10.52281274 0.07858547 12.40234375 0.09765625 C10.9692624 4.05672442 9.07092426 7.38483806 6.77734375 10.91015625 C6.14570312 11.88597656 5.5140625 12.86179687 4.86328125 13.8671875 C4.38117188 14.60324219 3.8990625 15.33929688 3.40234375 16.09765625 C5.05234375 15.76765625 6.70234375 15.43765625 8.40234375 15.09765625 C8.73234375 13.77765625 9.06234375 12.45765625 9.40234375 11.09765625 C10.06234375 11.09765625 10.72234375 11.09765625 11.40234375 11.09765625 C11.40234375 13.40765625 11.40234375 15.71765625 11.40234375 18.09765625 C5.79234375 18.09765625 0.18234375 18.09765625 -5.59765625 18.09765625 C0.68805804 6.38337054 0.68805804 6.38337054 4.40234375 1.09765625 C1.43216681 1.72575798 1.43216681 1.72575798 -1.59765625 3.09765625 C-3.03688824 5.60761121 -3.03688824 5.60761121 -3.59765625 8.09765625 C-3.92765625 8.09765625 -4.25765625 8.09765625 -4.59765625 8.09765625 C-4.64007348 5.7647085 -4.63858562 3.43063058 -4.59765625 1.09765625 C-3.59765625 0.09765625 -3.59765625 0.09765625 0 0 Z " fill="#EB6509" transform="translate(116.59765625,79.90234375)"/>
<path d="M0 0 C2.47923801 -0.02685095 4.9581884 -0.04676547 7.4375 -0.0625 C8.14455078 -0.07087891 8.85160156 -0.07925781 9.58007812 -0.08789062 C11.38693559 -0.09653588 13.19387603 -0.05220011 15 0 C15.33 0.33 15.66 0.66 16 1 C15.71269945 3.33944736 15.38063221 5.6739143 15 8 C13.35 8.33 11.7 8.66 10 9 C9.67 11.31 9.34 13.62 9 16 C9.99 16.33 10.98 16.66 12 17 C8.04 17 4.08 17 0 17 C0.66 16.67 1.32 16.34 2 16 C2 11.05 2 6.1 2 1 C1.34 0.67 0.68 0.34 0 0 Z M10 2 C10.33 2.66 10.66 3.32 11 4 C11.33 3.34 11.66 2.68 12 2 C11.34 2 10.68 2 10 2 Z " fill="#EB6609" transform="translate(94,81)"/>
<path d="M0 0 C0.66 0 1.32 0 2 0 C2 3.96 2 7.92 2 12 C-0.97 12 -3.94 12 -7 12 C-6.21625 11.13375 -5.4325 10.2675 -4.625 9.375 C-2.16613272 6.44943553 -0.97549896 3.72463238 0 0 Z " fill="#E45608" transform="translate(68,85)"/>
<path d="M0 0 C0.99 0 1.98 0 3 0 C3 1.32 3 2.64 3 4 C1.68 3.67 0.36 3.34 -1 3 C-0.67 2.01 -0.34 1.02 0 0 Z " fill="#EB6A0A" transform="translate(34,64)"/>
<path d="M0 0 C0.99 0.33 1.98 0.66 3 1 C3 1.99 3 2.98 3 4 C1.68 3.67 0.36 3.34 -1 3 C-0.67 2.01 -0.34 1.02 0 0 Z " fill="#EA690A" transform="translate(56,56)"/>
</svg>
